<svg xmlns="http://www.w3.org/2000/svg" viewBox="0 0 512 512" fill="none">
  <!-- Pure white icon on transparent background -->
  <g fill="#ffffff">
    <!-- Sound wave bars left -->
    <rect x="62" y="195" width="7" height="50" rx="3.5" opacity="0.5"/>
    <rect x="78" y="170" width="7" height="100" rx="3.5" opacity="0.6"/>
    <rect x="94" y="155" width="7" height="130" rx="3.5" opacity="0.7"/>
    <rect x="110" y="165" width="7" height="110" rx="3.5" opacity="0.6"/>
    <!-- Sound wave bars right -->
    <rect x="395" y="165" width="7" height="110" rx="3.5" opacity="0.6"/>
    <rect x="411" y="155" width="7" height="130" rx="3.5" opacity="0.7"/>
    <rect x="427" y="170" width="7" height="100" rx="3.5" opacity="0.6"/>
    <rect x="443" y="195" width="7" height="50" rx="3.5" opacity="0.5"/>
    <!-- M left stem -->
    <path d="M 140 120 L 140 340 C 140 365 155 385 180 390 C 200 394 215 380 215 360 C 215 345 205 335 190 335 L 175 335 L 175 155 L 250 155 L 250 120 Z"/>
    <!-- M right stem -->
    <path d="M 332 120 L 332 340 C 332 365 347 385 372 390 C 392 394 407 380 407 360 C 407 345 397 335 382 335 L 367 335 L 367 155 L 290 155 L 290 120 Z"/>
    <!-- Center V -->
    <path d="M 250 120 L 210 230 L 250 280 L 290 230 L 250 120 Z" opacity="0.85"/>
    <!-- Map pin -->
    <g transform="translate(370, 80) scale(0.55)">
      <path d="M 24 0 C 10.7 0 0 10.7 0 24 C 0 42 24 64 24 64 C 24 64 48 42 48 24 C 48 10.7 37.3 0 24 0 Z"/>
      <circle cx="24" cy="22" r="8" fill="#000000" opacity="0.3"/>
    </g>
  </g>
  <!-- Play triangle (same color as bg would look, so slightly visible) -->
  <path d="M 235 200 L 268 225 L 235 250 Z" fill="#000000" opacity="0.15"/>
  <!-- Dashed trail -->
  <path d="M 388 118 C 380 135 370 145 355 150" stroke="#ffffff" stroke-width="2.5" stroke-dasharray="6 4" fill="none" opacity="0.4"/>
</svg>
